<!-- This SVG is a representation of the Saxco International logo based on the image shared -->
<svg xmlns="http://www.w3.org/2000/svg" viewBox="0 0 400 150">
  <!-- Blue Saxco text -->
  <path
    fill="#00529B"
    d="M53.2,20c-5.5,0-10.3,1.2-14.4,3.7c-4.1,2.4-7.2,5.8-9.2,10c-2,4.2-3,9-3,14.4c0,5.4,1,10.2,3,14.4
    c2,4.2,5.1,7.5,9.2,9.9c4.1,2.4,9,3.6,14.5,3.6c3.9,0,7.5-0.6,10.8-1.7c3.3-1.1,6.2-2.7,8.7-4.8l-4.5-7.7c-2,1.6-4.2,2.8-6.6,3.7
    c-2.4,0.9-4.9,1.3-7.4,1.3c-3.7,0-6.9-0.8-9.6-2.5c-2.7-1.7-4.7-4-6-6.9c-1.3-2.9-2-6.2-2-9.8c0-3.6,0.7-6.9,2-9.8
    c1.3-2.9,3.3-5.2,6-6.9c2.7-1.7,5.9-2.5,9.6-2.5c2.6,0,5,0.4,7.4,1.3c2.4,0.9,4.6,2.1,6.6,3.7l4.5-7.7c-2.5-2.1-5.4-3.7-8.7-4.8
    C60.7,20.6,57.1,20,53.2,20z"
  />
  <path
    fill="#00529B"
    d="M97.2,20c-5.5,0-10.3,1.2-14.4,3.7c-4.1,2.4-7.2,5.8-9.2,10c-2,4.2-3,9-3,14.4c0,5.4,1,10.2,3,14.4
    c2,4.2,5.1,7.5,9.2,9.9c4.1,2.4,9,3.6,14.5,3.6c3.9,0,7.5-0.6,10.8-1.7c3.3-1.1,6.2-2.7,8.7-4.8l-4.5-7.7c-2,1.6-4.2,2.8-6.6,3.7
    c-2.4,0.9-4.9,1.3-7.4,1.3c-3.7,0-6.9-0.8-9.6-2.5c-2.7-1.7-4.7-4-6-6.9c-1.3-2.9-2-6.2-2-9.8c0-3.6,0.7-6.9,2-9.8
    c1.3-2.9,3.3-5.2,6-6.9c2.7-1.7,5.9-2.5,9.6-2.5c2.6,0,5,0.4,7.4,1.3c2.4,0.9,4.6,2.1,6.6,3.7l4.5-7.7c-2.5-2.1-5.4-3.7-8.7-4.8
    C104.7,20.6,101.1,20,97.2,20z"
  />
  
  <!-- Bottle shapes -->
  <path
    fill="#00529B"
    d="M330,20h-40c-5.5,0-10,4.5-10,10v110c0,5.5,4.5,10,10,10h40c5.5,0,10-4.5,10-10V30C340,24.5,335.5,20,330,20z"
  />
  <path
    fill="#00529B"
    d="M370,20h-20c-5.5,0-10,4.5-10,10v110c0,5.5,4.5,10,10,10h20c5.5,0,10-4.5,10-10V30C380,24.5,375.5,20,370,20z"
  />
  
  <!-- Darker International text -->
  <text
    x="30"
    y="180"
    font-family="Arial"
    font-size="24"
    fill="#4D5E48"
  >International</text>
</svg>
